<svg width="53" height="48" viewBox="0 0 53 48" fill="none" xmlns="http://www.w3.org/2000/svg">
<path d="M52.7324 15.8298L40.5658 4.25472C40.3944 4.09161 40.162 4 39.9194 4H22.7757C20.6937 4 19 5.61141 19 7.59219V44.4078C19 46.3886 20.6937 48 22.7757 48H49.2243C51.3063 48 53 46.3886 53 44.4078V16.4447C53 16.2141 52.9037 15.9928 52.7324 15.8298ZM40.8336 6.96905L49.8793 15.5749H42.7811C41.7072 15.5749 40.8337 14.7437 40.8337 13.7219V6.96905H40.8336ZM51.1719 44.4078C51.1719 45.4295 50.2983 46.2608 49.2243 46.2608H22.7757C21.7018 46.2608 20.8281 45.4295 20.8281 44.4078V7.59219C20.8281 6.57048 21.7018 5.7392 22.7757 5.7392H39.0054V13.7221C39.0054 15.7029 40.6991 17.3143 42.781 17.3143H51.1719V44.4078Z" fill="#A49393"/>
<path d="M42.7684 27H30.7511C30.3363 27 30 27.4012 30 27.8959C30 28.3906 30.3363 28.7918 30.7511 28.7918H42.7684C43.1833 28.7918 43.5195 28.3906 43.5195 27.8959C43.5195 27.4012 43.1833 27 42.7684 27Z" fill="#A49393"/>
<path d="M39.6218 32.5918H30.566C30.2534 32.5918 30 32.9929 30 33.4877C30 33.9824 30.2534 34.3836 30.566 34.3836H39.6218C39.9345 34.3836 40.1878 33.9824 40.1878 33.4877C40.1878 32.9929 39.9345 32.5918 39.6218 32.5918Z" fill="#A49393"/>
<path d="M36.4047 38.207H30.5428C30.243 38.207 30 38.6082 30 39.1029C30 39.5977 30.243 39.9988 30.5428 39.9988H36.4047C36.7045 39.9988 36.9475 39.5977 36.9475 39.1029C36.9475 38.6082 36.7045 38.207 36.4047 38.207Z" fill="#A49393"/>
<path d="M29.7105 17.2572C29.3994 17.1794 29.0883 17.2572 28.816 17.4516C27.805 18.3072 26.6383 19.0072 25.355 19.4738C24.1495 19.9405 22.8273 20.1738 21.4273 20.1738C18.2774 20.1738 15.3997 18.8905 13.3386 16.8294C11.2775 14.7684 9.99423 11.8907 9.99423 8.74073C9.99423 7.41853 10.2276 6.13523 10.6164 4.96859C11.0442 3.72417 11.6664 2.59642 12.4831 1.62421C12.8331 1.19645 12.7553 0.574237 12.3275 0.224244C12.0553 0.0298041 11.7442 -0.047972 11.4331 0.0298041C8.1276 0.924229 5.24989 2.90752 3.18882 5.55191C1.20553 8.1574 0 11.3851 0 14.9239C0 19.1627 1.71107 23.0126 4.51101 25.8126C7.31095 28.6125 11.1609 30.3236 15.3997 30.3236C18.9774 30.3236 22.2828 29.0792 24.9272 27.0181C27.6105 24.9182 29.5549 21.9238 30.3716 18.5016C30.566 17.9183 30.2549 17.3739 29.7105 17.2572ZM23.7606 25.3848C21.5051 27.1737 18.6274 28.2625 15.4774 28.2625C11.7831 28.2625 8.43871 26.7459 6.02765 24.3348C3.61659 21.9238 2.09995 18.5794 2.09995 14.885C2.09995 11.8129 3.11104 9.01294 4.86101 6.75744C6.06653 5.20191 7.58317 3.91861 9.33313 3.02418C9.13869 3.45195 8.94425 3.87972 8.7887 4.34638C8.28315 5.74635 8.04983 7.22409 8.04983 8.77961C8.04983 12.474 9.56646 15.8572 11.9775 18.2683C14.3886 20.6794 17.7718 22.196 21.4662 22.196C23.0995 22.196 24.655 21.9238 26.0939 21.3793C26.5994 21.1849 27.105 20.9905 27.5716 20.7571C26.6383 22.546 25.355 24.1404 23.7606 25.3848Z" fill="#A49393"/>
</svg>
